# xmcd
#
# Track frame offsets: 
#        150
#        16328
#        32117
#        52787
#        68915
#        88267
#        101615
#        120747
#        135520
#        152540
#        175424
#        191878
#
# Disc length: 2790 seconds
#
# Revision: 0
# Processed by: cddbd v1.5.2PL0 Copyright (c) Steve Scherf et al.
# Submitted via: ExactAudioCopy v0.99pb5
#
DISCID=9d0ae40c
DTITLE=Settle Down Easy - Jodi Adair
DYEAR=2008
DGENRE=Country
TTITLE0=Sunshine (Worry 'Bout The Weather)
TTITLE1=Let Me Love You
TTITLE2=Bad Man Blues
TTITLE3=Wildfire
TTITLE4=Cabin Fever
TTITLE5=Devil Is Beating His Wife
TTITLE6=Praise
TTITLE7=Lessons Rough
TTITLE8=Daddy Was A Gypsy
TTITLE9=I Love You More
TTITLE10=Spoiled Child
TTITLE11=Big Texas Smith
EXTD=
EXTT0=
EXTT1=
EXTT2=
EXTT3=
EXTT4=
EXTT5=
EXTT6=
EXTT7=
EXTT8=
EXTT9=
EXTT10=
EXTT11=
PLAYORDER=
